Coordinates
version=1
nRows=8
nColumns=40
inDegrees=yes

Units are S.I. units (second, meters, Newtons, ...)
Angles are in degrees.

endheader
time	pelvis_tilt	pelvis_list	pelvis_rotation	pelvis_tx	pelvis_ty	pelvis_tz	hip_flexion_r	hip_adduction_r	hip_rotation_r	knee_angle_r	knee_angle_r_beta	ankle_angle_r	subtalar_angle_r	mtp_angle_r	hip_flexion_l	hip_adduction_l	hip_rotation_l	knee_angle_l	knee_angle_l_beta	ankle_angle_l	subtalar_angle_l	mtp_angle_l	lumbar_extension	lumbar_bending	lumbar_rotation	arm_flex_r	arm_add_r	arm_rot_r	elbow_flex_r	pro_sup_r	wrist_flex_r	wrist_dev_r	arm_flex_l	arm_add_l	arm_rot_l	elbow_flex_l	pro_sup_l	wrist_flex_l	wrist_dev_l
      0.98000000	      3.36330005	     -0.47052200	      2.23350860	      0.16447103	      0.89142837	      1.43174950	     25.11513469	     -2.42149362	    -19.34642212	    -25.20863604	     -0.43997370	     -0.45294713	     -2.11243427	      4.05825174	    -13.62748400	     -1.74315286	     10.07503848	    -12.83947562	     -0.22409112	     11.79009609	     -8.44958781	     -6.78427674	     -8.10462872	      3.74117582	     -6.12136576	     -0.21321941	    -10.65398403	     21.06475075	     13.25299890	     89.95437384	      0.00000000	      0.00000000	     16.24014017	     10.86731933	    -15.65447384	     30.95820442	     89.95437384	      0.00000000	      0.00000000
      0.99000000	      3.19788086	     -0.60926572	      2.69640373	      0.17625040	      0.88968170	      1.43176095	     25.25462283	     -2.56127456	    -21.10912449	    -22.58851487	     -0.39424396	     -0.71217728	     -0.28771109	      3.33265009	    -14.09944478	     -1.34972851	      9.90806059	    -13.18769666	     -0.23016873	     11.88602597	     -8.75651085	     -7.04469686	     -8.01908351	      3.94253265	     -6.28708724	     -0.72533008	    -10.57479153	     20.79689613	     12.83697952	     89.95437384	      0.00000000	      0.00000000	     17.17052203	     10.84618773	    -15.43419210	     32.37470726	     89.95437384	      0.00000000	      0.00000000
      1.00000000	      2.96092381	     -0.65969041	      3.07668408	      0.18825908	      0.88779238	      1.43188998	     25.51298206	     -2.85255857	    -23.00257959	    -20.37180584	     -0.35555509	     -1.58765069	      1.58623661	     -4.99438875	    -14.48387827	     -1.04976631	      9.72440468	    -13.51963940	     -0.23596222	     11.52600112	     -9.05784634	     -8.97644322	     -7.82240855	      4.04203559	     -6.35317735	     -1.23254367	    -10.40129073	     20.11982266	     12.30578621	     89.95437384	      0.00000000	      0.00000000	     18.04181713	     10.83968550	    -15.40707363	     33.76695356	     89.95437384	      0.00000000	      0.00000000
      1.01000000	      2.45264636	     -0.69535472	      3.45954531	      0.19990941	      0.88566530	      1.43212796	     26.15673296	     -2.94346476	    -23.87524321	    -18.71092700	     -0.32656728	     -1.53627297	      2.36686522	     -5.03735039	    -14.41935025	     -0.77980605	      9.21955686	    -14.13669162	     -0.24673181	     11.40577513	     -9.10356037	     -8.94509763	     -7.36431287	      4.09258136	     -6.42207101	     -1.71607987	    -10.35152082	     20.04678000	     11.96301137	     89.95437384	      0.00000000	      0.00000000	     18.83872924	     10.82549533	    -15.31321874	     35.15336270	     89.95437384	      0.00000000	      0.00000000
      1.02000000	      2.16760629	     -0.91871565	      3.84888175	      0.21214892	      0.88398279	      1.43261203	     26.52746392	     -2.88923004	    -25.14474827	    -17.61534617	     -0.30744579	     -1.65500931	      3.34863251	     -5.15281649	    -14.51167400	     -0.22974045	      8.89451621	    -14.95657315	     -0.26104145	     11.40815041	     -9.19327511	     -8.97316158	     -7.09406791	      4.35100806	     -6.49225143	     -2.08845762	    -10.20857749	     19.87977171	     11.31647556	     89.95437384	      0.00000000	      0.00000000	     19.43207998	     10.82106424	    -15.09803451	     36.71471723	     89.95437384	      0.00000000	      0.00000000
      1.03000000	      2.10832515	     -1.16165811	      4.25586885	      0.22493118	      0.88273001	      1.43277654	     26.64614289	     -2.89776880	    -26.37854541	    -17.25440521	     -0.30114618	     -1.70480128	      4.77731282	     -5.43099064	    -14.81518799	      0.37203214	      8.71841482	    -15.88361243	     -0.27722133	     11.17412005	     -9.61059650	     -9.04937478	     -7.00864608	      4.68641253	     -6.56676807	     -2.47280493	    -10.10465719	     19.40657266	     10.73104484	     89.95437384	      0.00000000	      0.00000000	     19.89353764	     10.64912450	    -14.54613673	     38.24197200	     89.95437384	      0.00000000	      0.00000000
      1.04000000	      1.92668286	     -1.18445011	      4.44683940	      0.23784438	      0.88149228	      1.43296123	     27.00739987	     -2.92321991	    -25.89059344	    -17.55629597	     -0.30641517	     -1.74833242	      4.80902088	     -5.37090251	    -15.08136960	      0.59233800	      8.23807966	    -16.63725512	     -0.29037488	     10.69864759	     -9.43048817	     -8.88552033	     -6.80388845	      4.76691333	     -6.24479821	     -3.08114482	    -10.13887623	     19.32760395	     10.50141301	     89.95437384	      0.00000000	      0.00000000	     20.44941820	     10.34439078	    -14.31517721	     39.47632923	     89.95437384	      0.00000000	      0.00000000
      1.05000000	      1.88951109	     -1.36653327	      4.76372313	      0.25137851	      0.88060726	      1.43312019	     27.03337436	     -2.71762542	    -24.90326341	    -18.18721376	     -0.31742676	     -1.81790054	      4.91201286	     -5.31207598	    -15.40495501	      1.03205316	      7.57928101	    -17.60524067	     -0.30726942	     10.00608202	     -9.29934967	     -8.71127825	     -6.65948030	      5.03742643	     -6.21426277	     -3.49821908	    -10.06522830	     19.24742253	      9.97745409	     89.95437384	      0.00000000	      0.00000000	     20.60814663	     10.19907727	    -13.93152107	     41.10874637	     89.95437384	      0.00000000	      0.00000000
